<?xml version="1.0" encoding="UTF-8" standalone="no"?>
<!-- Created with Inkscape (http://www.inkscape.org/) -->

<svg
   width="512"
   height="512"
   viewBox="0 0 135.46667 135.46667"
   version="1.1"
   id="svg14242"
   xmlns:xlink="http://www.w3.org/1999/xlink"
   xmlns="http://www.w3.org/2000/svg"
   xmlns:svg="http://www.w3.org/2000/svg">
  <defs
     id="defs14239">
    <linearGradient
       xlink:href="#linearGradient20642"
       id="linearGradient13499"
       gradientUnits="userSpaceOnUse"
       gradientTransform="matrix(1.5907807,0,0,1.5907807,-1005.5191,-262.45625)"
       x1="632.11389"
       y1="207.56461"
       x2="717.21863"
       y2="207.56461" />
    <linearGradient
       id="linearGradient20642">
      <stop
         style="stop-color:#9a1194;stop-opacity:0.99607843"
         offset="0"
         id="stop20638" />
      <stop
         style="stop-color:#d25fd0;stop-opacity:1"
         offset="1"
         id="stop20640" />
    </linearGradient>
  </defs>
  <g
     id="layer1">
    <rect
       style="display:inline;fill:url(#linearGradient13499);fill-opacity:1;stroke:none;stroke-width:9.54469;stroke-miterlimit:4;stroke-dasharray:none;stroke-opacity:1"
       id="rect13483"
       width="135.383"
       height="135.383"
       x="0.034999333"
       y="0.041656636"
       ry="21.188547" />
    <path
       id="path13485"
       style="display:inline;fill:#a43c9f;fill-opacity:1;stroke-width:9.54469;stroke-miterlimit:4;stroke-dasharray:none"
       d="m 135.41325,110.45661 c 0,11.73845 -9.44478,24.96839 -21.18331,24.96839 H 21.22415 c -11.7385303,0 -21.18856295,-9.45009 -21.18856295,-21.18854 V 24.618003 C 116.0441,24.618003 79.062232,109.20213 135.41325,110.45661 Z" />
    <path
       id="path13487"
       style="display:inline;fill:#860f81;fill-opacity:0.850202;stroke-width:9.54469;stroke-miterlimit:4;stroke-dasharray:none"
       d="m 135.4185,114.23646 c 0,11.73845 -9.45003,21.18854 -21.18856,21.18854 H 21.22415 c -11.7385303,0 -21.18856295,-9.45009 -21.18856295,-21.18854 V 24.618003 c 45.12480195,0 17.38810895,85.838607 135.37663295,85.838607 1.25995,0 -57.853435,3.77985 0.006,3.77985 z" />
    <path
       id="path13489"
       style="color:#000000;display:inline;fill:#edcbeb;stroke-width:1.59078;-inkscape-stroke:none"
       d="m 98.610064,13.578922 c -4.634597,0 -8.648407,2.940365 -10.260139,7.038484 l -88.31540375,0.02399 v 7.953425 c 0,0 0.0042957,0 0.0042957,0 C 20.246656,28.594607 32.339279,33.631153 41.159829,41.06957 c 8.821056,7.438798 14.452239,17.655033 20.518585,28.420202 6.066384,10.765164 12.59821,22.077953 23.743522,30.699798 3.013002,2.33082 6.355758,4.43981 10.083402,6.28054 l -48.407788,-0.0127 c -1.611939,-4.09761 -5.625039,-7.037651 -10.259293,-7.037651 -6.032675,0 -11.014756,4.981241 -11.014756,11.013961 0,6.03268 4.982081,11.01146 11.014756,11.01146 4.633623,0 8.64609,-2.93766 10.258493,-7.03355 l 88.31704,0.0241 v -7.95342 c -21.98271,0 -35.465418,-5.10992 -45.126069,-12.583258 C 80.627019,86.425242 74.633483,76.27929 68.606746,65.584424 62.579962,54.889546 56.550108,43.645488 46.286186,34.989885 43.466447,32.612002 40.331292,30.45934 36.822634,28.585225 l 51.529137,-0.01384 c 1.612145,4.097234 5.625335,7.036802 10.259295,7.036802 6.032724,0 11.014754,-4.98204 11.014754,-11.014756 0,-6.032718 -4.98203,-11.013956 -11.014754,-11.013956 z m 0,7.954266 c 1.763826,0 3.060516,1.295848 3.060516,3.059689 0,1.76384 -1.29669,3.060531 -3.060516,3.060531 -1.763842,0 -3.060535,-1.296691 -3.060535,-3.060531 0,-1.763841 1.296693,-3.059689 3.060535,-3.059689 z m -61.77282,85.839352 c 1.763842,0 3.060532,1.2967 3.060532,3.06054 0,1.7638 -1.29669,3.05721 -3.060532,3.05721 -1.763799,0 -3.060489,-1.29341 -3.060489,-3.05721 0,-1.76384 1.29669,-3.06054 3.060489,-3.06054 z" />
  </g>
</svg>
